{
  "accessors": [
    {
      "bufferView": 2,
      "componentType": 5126,
      "count": 4,
      "max": [
        26.649675369262695,
        17.923059463500977,
        0.16200399398803711
      ],
      "min": [
        -23.727962493896484,
        -17.281764984130859,
        0.16200399398803711
      ],
      "type": "VEC3"
    },
    {
      "bufferView": 2,
      "byteOffset": 48,
      "componentType": 5126,
      "count": 4,
      "max": [
        0,
        -0,
        1
      ],
      "min": [
        0,
        -0,
        1
      ],
      "type": "VEC3"
    },
    {
      "bufferView": 3,
      "componentType": 5126,
      "count": 4,
      "max": [
        0,
        0,
        0,
        1
      ],
      "min": [
        0,
        0,
        0,
        1
      ],
      "type": "VEC4"
    },
    {
      "bufferView": 0,
      "componentType": 5125,
      "count": 6,
      "max": [
        3
      ],
      "min": [
        0
      ],
      "type": "SCALAR"
    },
    {
      "bufferView": 2,
      "byteOffset": 96,
      "componentType": 5126,
      "count": 3014,
      "max": [
        13.566235542297363,
        9.4362649917602539,
        16.137874603271484
      ],
      "min": [
        -10.762204170227051,
        -9.4296026229858398,
        -2.4573891162872314
      ],
      "type": "VEC3"
    },
    {
      "bufferView": 2,
      "byteOffset": 36264,
      "componentType": 5126,
      "count": 3014,
      "max": [
        1,
        1,
        1
      ],
      "min": [
        -1,
        -1,
        -1
      ],
      "type": "VEC3"
    },
    {
      "bufferView": 3,
      "byteOffset": 64,
      "componentType": 5126,
      "count": 3014,
      "max": [
        1,
        1.3926687358889467e-07,
        0,
        1
      ],
      "min": [
        0,
        -0.32518637180328369,
        0,
        1
      ],
      "type": "VEC4"
    },
    {
      "bufferView": 0,
      "byteOffset": 24,
      "componentType": 5125,
      "count": 5883,
      "max": [
        3013
      ],
      "min": [
        0
      ],
      "type": "SCALAR"
    },
    {
      "bufferView": 2,
      "byteOffset": 72432,
      "componentType": 5126,
      "count": 768,
      "max": [
        -1.9152040481567383,
        -3.1208839416503906,
        3.722912073135376
      ],
      "min": [
        -2.0431990623474121,
        -3.2904369831085205,
        2.7919690608978271
      ],
      "type": "VEC3"
    },
    {
      "bufferView": 2,
      "byteOffset": 81648,
      "componentType": 5126,
      "count": 768,
      "max": [
        1,
        1,
        1
      ],
      "min": [
        -1,
        -1,
        -1
      ],
      "type": "VEC3"
    },
    {
      "bufferView": 3,
      "byteOffset": 48288,
      "componentType": 5126,
      "count": 768,
      "max": [
        0,
        0,
        0,
        1
      ],
      "min": [
        0,
        0,
        0,
        1
      ],
      "type": "VEC4"
    },
    {
      "bufferView": 0,
      "byteOffset": 23556,
      "componentType": 5125,
      "count": 4494,
      "max": [
        767
      ],
      "min": [
        0
      ],
      "type": "SCALAR"
    },
    {
      "bufferView": 2,
      "byteOffset": 90864,
      "componentType": 5126,
      "count": 44,
      "max": [
        0.11659900099039078,
        -3.1118230819702148,
        6.3344569206237793
      ],
      "min": [
        -2.0523600578308105,
        -3.1285490989685059,
        1.3519049882888794
      ],
      "type": "VEC3"
    },
    {
      "bufferView": 2,
      "byteOffset": 91392,
      "componentType": 5126,
      "count": 44,
      "max": [
        1,
        -0,
        1
      ],
      "min": [
        -1,
        -1,
        -1
      ],
      "type": "VEC3"
    },
    {
      "bufferView": 3,
      "byteOffset": 60576,
      "componentType": 5126,
      "count": 44,
      "max": [
        0.98576563596725464,
        0,
        0.90382629632949829,
        1
      ],
      "min": [
        0,
        0,
        -0.94812846183776855,
        1
      ],
      "type": "VEC4"
    },
    {
      "bufferView": 1,
      "componentType": 5126,
      "count": 44,
      "max": [
        0.73509401082992554,
        0.99267297983169556
      ],
      "min": [
        0.26396799087524414,
        0.0077769998461008072
      ],
      "type": "VEC2"
    },
    {
      "bufferView": 0,
      "byteOffset": 41532,
      "componentType": 5125,
      "count": 90,
      "max": [
        43
      ],
      "min": [
        0
      ],
      "type": "SCALAR"
    },
    {
      "bufferView": 2,
      "byteOffset": 91920,
      "componentType": 5126,
      "count": 4,
      "max": [
        -0.030717000365257263,
        -3.1118230819702148,
        3.0356400012969971
      ],
      "min": [
        -1.9050439596176147,
        -3.1118230819702148,
        1.4899230003356934
      ],
      "type": "VEC3"
    },
    {
      "bufferView": 2,
      "byteOffset": 91968,
      "componentType": 5126,
      "count": 4,
      "max": [
        0,
        -1,
        0
      ],
      "min": [
        0,
        -1,
        0
      ],
      "type": "VEC3"
    },
    {
      "bufferView": 3,
      "byteOffset": 61280,
      "componentType": 5126,
      "count": 4,
      "max": [
        1,
        0,
        2.1701232526538661e-06,
        1
      ],
      "min": [
        1,
        0,
        0,
        1
      ],
      "type": "VEC4"
    },
    {
      "bufferView": 1,
      "byteOffset": 352,
      "componentType": 5126,
      "count": 4,
      "max": [
        0.86269897222518921,
        0.83439898490905762
      ],
      "min": [
        0.13416300714015961,
        0.23359300196170807
      ],
      "type": "VEC2"
    },
    {
      "bufferView": 0,
      "byteOffset": 41892,
      "componentType": 5125,
      "count": 6,
      "max": [
        3
      ],
      "min": [
        0
      ],
      "type": "SCALAR"
    },
    {
      "bufferView": 2,
      "byteOffset": 92016,
      "componentType": 5126,
      "count": 172,
      "max": [
        13.358972549438477,
        8.9875707626342773,
        15.352904319763184
      ],
      "min": [
        -10.47923755645752,
        -7.2131590843200684,
        -2.4573891162872314
      ],
      "type": "VEC3"
    },
    {
      "bufferView": 2,
      "byteOffset": 94080,
      "componentType": 5126,
      "count": 172,
      "max": [
        1,
        1,
        0.005099934060126543
      ],
      "min": [
        -1,
        -1,
        -0.00069999980041757226
      ],
      "type": "VEC3"
    },
    {
      "bufferView": 3,
      "byteOffset": 61344,
      "componentType": 5126,
      "count": 172,
      "max": [
        1,
        1,
        6.0254055824771058e-06,
        1
      ],
      "min": [
        -1,
        -1,
        -4.1632565626059659e-06,
        1
      ],
      "type": "VEC4"
    },
    {
      "bufferView": 1,
      "byteOffset": 384,
      "componentType": 5126,
      "count": 172,
      "max": [
        3.922015905380249,
        4.2598638534545898
      ],
      "min": [
        -2.891294002532959,
        -3.2273569107055664
      ],
      "type": "VEC2"
    },
    {
      "bufferView": 0,
      "byteOffset": 41916,
      "componentType": 5125,
      "count": 426,
      "max": [
        171
      ],
      "min": [
        0
      ],
      "type": "SCALAR"
    },
    {
      "bufferView": 2,
      "byteOffset": 96144,
      "componentType": 5126,
      "count": 80,
      "max": [
        12.545723915100098,
        9.0803556442260742,
        6.5655388832092285
      ],
      "min": [
        -9.3558177947998047,
        -3.2056999206542969,
        2.3513150215148926
      ],
      "type": "VEC3"
    },
    {
      "bufferView": 2,
      "byteOffset": 97104,
      "componentType": 5126,
      "count": 80,
      "max": [
        0,
        1,
        0
      ],
      "min": [
        0,
        -1,
        0
      ],
      "type": "VEC3"
    },
    {
      "bufferView": 3,
      "byteOffset": 64096,
      "componentType": 5126,
      "count": 80,
      "max": [
        1,
        0,
        0,
        1
      ],
      "min": [
        -1,
        0,
        0,
        1
      ],
      "type": "VEC4"
    },
    {
      "bufferView": 1,
      "byteOffset": 1760,
      "componentType": 5126,
      "count": 80,
      "max": [
        8.6532773971557617,
        8.993891716003418
      ],
      "min": [
        -7.6911239624023438,
        -7.993894100189209
      ],
      "type": "VEC2"
    },
    {
      "bufferView": 0,
      "byteOffset": 43620,
      "componentType": 5125,
      "count": 120,
      "max": [
        79
      ],
      "min": [
        0
      ],
      "type": "SCALAR"
    },
    {
      "bufferView": 2,
      "byteOffset": 98064,
      "componentType": 5126,
      "count": 920,
      "max": [
        12.623388290405273,
        9.1144962310791016,
        6.6428351402282715
      ],
      "min": [
        -9.4334821701049805,
        -3.2398390769958496,
        2.2740190029144287
      ],
      "type": "VEC3"
    },
    {
      "bufferView": 2,
      "byteOffset": 109104,
      "componentType": 5126,
      "count": 920,
      "max": [
        1,
        1,
        1
      ],
      "min": [
        -1,
        -1,
        -1
      ],
      "type": "VEC3"
    },
    {
      "bufferView": 3,
      "byteOffset": 65376,
      "componentType": 5126,
      "count": 920,
      "max": [
        0,
        0,
        0,
        1
      ],
      "min": [
        0,
        0,
        0,
        1
      ],
      "type": "VEC4"
    },
    {
      "bufferView": 0,
      "byteOffset": 44100,
      "componentType": 5125,
      "count": 1920,
      "max": [
        919
      ],
      "min": [
        0
      ],
      "type": "SCALAR"
    },
    {
      "bufferView": 2,
      "byteOffset": 120144,
      "componentType": 5126,
      "count": 128,
      "max": [
        13.272445678710938,
        9.0187559127807617,
        11.903864860534668
      ],
      "min": [
        -10.47923755645752,
        -7.2457761764526367,
        2.5835590362548828
      ],
      "type": "VEC3"
    },
    {
      "bufferView": 2,
      "byteOffset": 121680,
      "componentType": 5126,
      "count": 128,
      "max": [
        1,
        1,
        1
      ],
      "min": [
        -1,
        -1,
        0
      ],
      "type": "VEC3"
    },
    {
      "bufferView": 3,
      "byteOffset": 80096,
      "componentType": 5126,
      "count": 128,
      "max": [
        0,
        0,
        0,
        1
      ],
      "min": [
        0,
        0,
        0,
        1
      ],
      "type": "VEC4"
    },
    {
      "bufferView": 0,
      "byteOffset": 51780,
      "componentType": 5125,
      "count": 192,
      "max": [
        127
      ],
      "min": [
        0
      ],
      "type": "SCALAR"
    },
    {
      "bufferView": 2,
      "byteOffset": 123216,
      "componentType": 5126,
      "count": 21,
      "max": [
        13.333914756774902,
        2.9661309719085693,
        1.3800690174102783
      ],
      "min": [
        -2.9268538951873779,
        -9.4296026229858398,
        0.42420399188995361
      ],
      "type": "VEC3"
    },
    {
      "bufferView": 2,
      "byteOffset": 123468,
      "componentType": 5126,
      "count": 21,
      "max": [
        0,
        -0,
        1
      ],
      "min": [
        0,
        -0,
        1
      ],
      "type": "VEC3"
    },
    {
      "bufferView": 3,
      "byteOffset": 82144,
      "componentType": 5126,
      "count": 21,
      "max": [
        1,
        0,
        0,
        1
      ],
      "min": [
        1,
        0,
        0,
        1
      ],
      "type": "VEC4"
    },
    {
      "bufferView": 1,
      "byteOffset": 2400,
      "componentType": 5126,
      "count": 21,
      "max": [
        2.0429039001464844,
        1.6005940437316895
      ],
      "min": [
        -0.74127197265625,
        -0.52180898189544678
      ],
      "type": "VEC2"
    },
    {
      "bufferView": 0,
      "byteOffset": 52548,
      "componentType": 5125,
      "count": 36,
      "max": [
        20
      ],
      "min": [
        0
      ],
      "type": "SCALAR"
    },
    {
      "bufferView": 2,
      "byteOffset": 123720,
      "componentType": 5126,
      "count": 273,
      "max": [
        13.566235542297363,
        9.4362649917602539,
        16.162294387817383
      ],
      "min": [
        -10.762204170227051,
        -7.663175106048584,
        8.7256908416748047
      ],
      "type": "VEC3"
    },
    {
      "bufferView": 2,
      "byteOffset": 126996,
      "componentType": 5126,
      "count": 273,
      "max": [
        0.87399482727050781,
        0.77331984043121338,
        0.97515738010406494
      ],
      "min": [
        -0.87407708168029785,
        -0.72789168357849121,
        -0.72794157266616821
      ],
      "type": "VEC3"
    },
    {
      "bufferView": 3,
      "byteOffset": 82480,
      "componentType": 5126,
      "count": 273,
      "max": [
        1,
        1,
        0.00061739666853100061,
        1
      ],
      "min": [
        -7.9272399489127565e-07,
        -0.046904567629098892,
        -0.01894753985106945,
        1
      ],
      "type": "VEC4"
    },
    {
      "bufferView": 1,
      "byteOffset": 2568,
      "componentType": 5126,
      "count": 273,
      "max": [
        2.2426168918609619,
        1.8727469444274902
      ],
      "min": [
        -1.2306400537490845,
        -1.035133957862854
      ],
      "type": "VEC2"
    },
    {
      "bufferView": 0,
      "byteOffset": 52692,
      "componentType": 5125,
      "count": 1281,
      "max": [
        272
      ],
      "min": [
        0
      ],
      "type": "SCALAR"
    }
  ],
  "asset": {
    "extras": {
      "author": "ministephen (https://sketchfab.com/ministephen)",
      "license": "CC-BY-4.0 (http://creativecommons.org/licenses/by/4.0/)",
      "source": "https://sketchfab.com/models/be18892d167f40d9bb4d7dcae0eb0573",
      "title": "House"
    },
    "generator": "Sketchfab-3.23.4",
    "version": "2.0"
  },
  "bufferViews": [
    {
      "buffer": 0,
      "byteLength": 57816,
      "byteOffset": 0,
      "name": "floatBufferViews",
      "target": 34963
    },
    {
      "buffer": 0,
      "byteLength": 4752,
      "byteOffset": 57816,
      "byteStride": 8,
      "name": "floatBufferViews",
      "target": 34962
    },
    {
      "buffer": 0,
      "byteLength": 130272,
      "byteOffset": 62568,
      "byteStride": 12,
      "name": "floatBufferViews",
      "target": 34962
    },
    {
      "buffer": 0,
      "byteLength": 86848,
      "byteOffset": 192840,
      "byteStride": 16,
      "name": "floatBufferViews",
      "target": 34962
    }
  ],
  "buffers": [
    {
      "byteLength": 279688,
      "uri": "scene.bin"
    }
  ],
  "images": [
    {
      "uri": "textures/foof_baseColor.png"
    },
    {
      "uri": "textures/door1_baseColor.jpeg"
    },
    {
      "uri": "textures/slats_baseColor.png"
    },
    {
      "uri": "textures/woodfloor_baseColor.jpeg"
    },
    {
      "uri": "textures/panesl_baseColor.png"
    },
    {
      "uri": "textures/door2_baseColor.jpeg"
    }
  ],
  "materials": [
    {
      "doubleSided": true,
      "emissiveFactor": [
        0,
        0,
        0
      ],
      "name": "Material.013",
      "pbrMetallicRoughness": {
        "baseColorFactor": [
          0.0062652248999999997,
          0.040112326099999998,
          0,
          1
        ],
        "metallicFactor": 0,
        "roughnessFactor": 0.84349154199999998
      }
    },
    {
      "doubleSided": true,
      "emissiveFactor": [
        0,
        0,
        0
      ],
      "name": "Material.014",
      "pbrMetallicRoughness": {
        "baseColorFactor": [
          0.64000000000000001,
          0.64000000000000001,
          0.64000000000000001,
          1
        ],
        "metallicFactor": 0.074885670700000004,
        "roughnessFactor": 0.14462652440000001
      }
    },
    {
      "doubleSided": true,
      "emissiveFactor": [
        0,
        0,
        0
      ],
      "name": "black_stuff",
      "pbrMetallicRoughness": {
        "baseColorFactor": [
          0.11036585363200001,
          0.11036585363200001,
          0.11036585363200001,
          1
        ],
        "metallicFactor": 1,
        "roughnessFactor": 0.12633384150000004
      }
    },
    {
      "doubleSided": true,
      "emissiveFactor": [
        0,
        0,
        0
      ],
      "name": "door1",
      "pbrMetallicRoughness": {
        "baseColorFactor": [
          1,
          1,
          1,
          1
        ],
        "baseColorTexture": {
          "index": 1,
          "texCoord": 0
        },
        "metallicFactor": 0,
        "roughnessFactor": 0.7421875
      }
    },
    {
      "doubleSided": true,
      "emissiveFactor": [
        0,
        0,
        0
      ],
      "name": "door2",
      "pbrMetallicRoughness": {
        "baseColorFactor": [
          1,
          1,
          1,
          1
        ],
        "baseColorTexture": {
          "index": 5,
          "texCoord": 0
        },
        "metallicFactor": 0,
        "roughnessFactor": 0.71169969509999997
      }
    },
    {
      "doubleSided": true,
      "emissiveFactor": [
        0,
        0,
        0
      ],
      "name": "foof",
      "pbrMetallicRoughness": {
        "baseColorFactor": [
          1,
          1,
          1,
          1
        ],
        "baseColorTexture": {
          "index": 0,
          "texCoord": 0
        },
        "metallicFactor": 1,
        "roughnessFactor": 0.92511432930000004
      }
    },
    {
      "doubleSided": true,
      "emissiveFactor": [
        0,
        0,
        0
      ],
      "name": "panesl",
      "pbrMetallicRoughness": {
        "baseColorFactor": [
          1,
          1,
          1,
          1
        ],
        "baseColorTexture": {
          "index": 4,
          "texCoord": 0
        },
        "metallicFactor": 0.074885670700000004,
        "roughnessFactor": 0.10194359760000005
      }
    },
    {
      "doubleSided": true,
      "emissiveFactor": [
        0,
        0,
        0
      ],
      "name": "slats",
      "pbrMetallicRoughness": {
        "baseColorFactor": [
          1,
          1,
          1,
          1
        ],
        "baseColorTexture": {
          "index": 2,
          "texCoord": 0
        },
        "metallicFactor": 0,
        "roughnessFactor": 0.22389481710000003
      }
    },
    {
      "doubleSided": true,
      "emissiveFactor": [
        0,
        0,
        0
      ],
      "name": "slats_wood",
      "pbrMetallicRoughness": {
        "baseColorFactor": [
          0.1620293756,
          0.066625938600000004,
          0.0159962934,
          1
        ],
        "metallicFactor": 0,
        "roughnessFactor": 0.20560213409999994
      }
    },
    {
      "alphaMode": "BLEND",
      "doubleSided": true,
      "emissiveFactor": [
        0.0171493902,
        0.0171493902,
        0.0171493902
      ],
      "name": "window",
      "pbrMetallicRoughness": {
        "baseColorFactor": [
          1,
          1,
          1,
          0.89805640239999995
        ],
        "metallicFactor": 1,
        "roughnessFactor": 0
      }
    },
    {
      "doubleSided": true,
      "emissiveFactor": [
        0,
        0,
        0
      ],
      "name": "woodfloor",
      "pbrMetallicRoughness": {
        "baseColorFactor": [
          1,
          1,
          1,
          1
        ],
        "baseColorTexture": {
          "index": 3,
          "texCoord": 0
        },
        "metallicFactor": 0.46512957319999998,
        "roughnessFactor": 0.33365091459999996
      }
    }
  ],
  "meshes": [
    {
      "primitives": [
        {
          "attributes": {
            "NORMAL": 1,
            "POSITION": 0,
            "TANGENT": 2
          },
          "indices": 3,
          "material": 0,
          "mode": 4
        }
      ]
    },
    {
      "primitives": [
        {
          "attributes": {
            "NORMAL": 5,
            "POSITION": 4,
            "TANGENT": 6
          },
          "indices": 7,
          "material": 1,
          "mode": 4
        }
      ]
    },
    {
      "primitives": [
        {
          "attributes": {
            "NORMAL": 9,
            "POSITION": 8,
            "TANGENT": 10
          },
          "indices": 11,
          "material": 2,
          "mode": 4
        }
      ]
    },
    {
      "primitives": [
        {
          "attributes": {
            "NORMAL": 13,
            "POSITION": 12,
            "TANGENT": 14,
            "TEXCOORD_0": 15
          },
          "indices": 16,
          "material": 3,
          "mode": 4
        }
      ]
    },
    {
      "primitives": [
        {
          "attributes": {
            "NORMAL": 18,
            "POSITION": 17,
            "TANGENT": 19,
            "TEXCOORD_0": 20
          },
          "indices": 21,
          "material": 4,
          "mode": 4
        }
      ]
    },
    {
      "primitives": [
        {
          "attributes": {
            "NORMAL": 23,
            "POSITION": 22,
            "TANGENT": 24,
            "TEXCOORD_0": 25
          },
          "indices": 26,
          "material": 6,
          "mode": 4
        }
      ]
    },
    {
      "primitives": [
        {
          "attributes": {
            "NORMAL": 28,
            "POSITION": 27,
            "TANGENT": 29,
            "TEXCOORD_0": 30
          },
          "indices": 31,
          "material": 7,
          "mode": 4
        }
      ]
    },
    {
      "primitives": [
        {
          "attributes": {
            "NORMAL": 33,
            "POSITION": 32,
            "TANGENT": 34
          },
          "indices": 35,
          "material": 8,
          "mode": 4
        }
      ]
    },
    {
      "primitives": [
        {
          "attributes": {
            "NORMAL": 37,
            "POSITION": 36,
            "TANGENT": 38
          },
          "indices": 39,
          "material": 9,
          "mode": 4
        }
      ]
    },
    {
      "primitives": [
        {
          "attributes": {
            "NORMAL": 41,
            "POSITION": 40,
            "TANGENT": 42,
            "TEXCOORD_0": 43
          },
          "indices": 44,
          "material": 10,
          "mode": 4
        }
      ]
    },
    {
      "primitives": [
        {
          "attributes": {
            "NORMAL": 46,
            "POSITION": 45,
            "TANGENT": 47,
            "TEXCOORD_0": 48
          },
          "indices": 49,
          "material": 5,
          "mode": 4
        }
      ]
    }
  ],
  "nodes": [
    {
      "children": [
        1
      ],
      "name": "RootNode (gltf orientation matrix)",
      "rotation": [
        -0.70710678118654746,
        -0,
        -0,
        0.70710678118654757
      ]
    },
    {
      "children": [
        2
      ],
      "name": "RootNode (model correction matrix)"
    },
    {
      "children": [
        3,
        4,
        5,
        6,
        7,
        8,
        9,
        10,
        11,
        12,
        13
      ],
      "name": "horse.obj.cleaner.materialmerger.gles"
    },
    {
      "mesh": 0,
      "name": ""
    },
    {
      "mesh": 1,
      "name": ""
    },
    {
      "mesh": 2,
      "name": ""
    },
    {
      "mesh": 3,
      "name": ""
    },
    {
      "mesh": 4,
      "name": ""
    },
    {
      "mesh": 5,
      "name": ""
    },
    {
      "mesh": 6,
      "name": ""
    },
    {
      "mesh": 7,
      "name": ""
    },
    {
      "mesh": 8,
      "name": ""
    },
    {
      "mesh": 9,
      "name": ""
    },
    {
      "mesh": 10,
      "name": ""
    }
  ],
  "samplers": [
    {
      "magFilter": 9729,
      "minFilter": 9987,
      "wrapS": 10497,
      "wrapT": 10497
    }
  ],
  "scene": 0,
  "scenes": [
    {
      "name": "OSG_Scene",
      "nodes": [
        0
      ]
    }
  ],
  "textures": [
    {
      "sampler": 0,
      "source": 0
    },
    {
      "sampler": 0,
      "source": 1
    },
    {
      "sampler": 0,
      "source": 2
    },
    {
      "sampler": 0,
      "source": 3
    },
    {
      "sampler": 0,
      "source": 4
    },
    {
      "sampler": 0,
      "source": 5
    }
  ]
}

